<?xml version="1.0" standalone="no"?>
<!DOCTYPE svg PUBLIC "-//W3C//DTD SVG 20010904//EN"
 "http://www.w3.org/TR/2001/REC-SVG-20010904/DTD/svg10.dtd">
<svg version="1.0" xmlns="http://www.w3.org/2000/svg"
 width="600.000000pt" height="480.000000pt" viewBox="0 0 600.000000 480.000000"
 preserveAspectRatio="xMidYMid meet">

<g transform="translate(0.000000,480.000000) scale(0.100000,-0.100000)"
fill="#000000" stroke="none">
<path d="M1930 3000 l0 -1260 95 0 95 0 0 1145 0 1145 569 0 568 0 33 -22 c52
-36 73 -71 77 -130 5 -69 -24 -122 -86 -155 l-44 -23 -484 0 -483 0 0 -110 0
-110 739 -2 c733 -3 740 -3 768 -24 102 -75 99 -211 -6 -281 l-34 -23 -733 0
-734 0 0 -706 0 -705 698 3 c626 4 703 6 757 21 157 46 254 117 307 225 l33
67 0 685 0 685 -31 60 c-39 74 -116 148 -192 183 -48 22 -74 27 -169 30 -62 2
-113 6 -113 9 0 2 7 27 16 54 25 75 16 197 -20 272 -55 115 -170 199 -297 217
-35 5 -349 10 -696 10 l-633 0 0 -1260z"/>
<path d="M1842 1417 c-57 -11 -115 -68 -130 -128 -38 -151 119 -280 256 -210
120 61 136 217 32 305 -28 23 -48 31 -100 40 -8 1 -34 -2 -58 -7z m121 -107
c61 -68 17 -170 -75 -170 -85 1 -132 76 -93 150 34 66 117 76 168 20z"/>
<path d="M2254 1420 c-54 -12 -101 -48 -123 -94 -62 -127 21 -266 159 -266
140 0 227 153 156 274 -38 64 -122 102 -192 86z m81 -86 c68 -32 80 -121 23
-169 -59 -49 -157 -18 -173 55 -9 40 19 94 58 114 40 20 51 20 92 0z"/>
<path d="M3015 1420 c-69 -15 -105 -53 -105 -108 0 -47 35 -77 118 -102 80
-24 101 -42 82 -65 -22 -26 -79 -19 -110 15 -21 23 -37 30 -65 30 -36 0 -37
-1 -30 -27 15 -61 78 -103 155 -103 85 0 140 42 140 106 0 51 -32 81 -113 105
-40 12 -79 28 -87 36 -13 13 -13 16 4 29 28 20 70 17 91 -6 12 -13 31 -20 57
-20 42 0 45 7 23 50 -24 47 -97 75 -160 60z"/>
<path d="M3735 1420 c-113 -26 -175 -140 -134 -247 25 -66 95 -113 169 -113
138 0 221 139 159 267 -32 67 -121 110 -194 93z m107 -108 c42 -43 41 -100 -1
-143 -41 -41 -106 -41 -143 -1 -36 37 -43 71 -24 116 28 68 114 83 168 28z"/>
<path d="M1360 1240 l0 -183 113 5 c152 6 186 25 187 106 0 33 -6 48 -25 66
-22 21 -23 25 -10 36 11 9 15 27 13 58 -5 71 -33 86 -169 90 l-109 4 0 -182z
m184 104 c9 -4 16 -18 16 -34 0 -32 -14 -40 -76 -40 l-44 0 0 40 0 40 44 0
c24 0 51 -3 60 -6z m19 -155 c21 -34 2 -49 -63 -49 l-60 0 0 35 0 36 56 -3
c39 -2 60 -8 67 -19z"/>
<path d="M2532 1243 l3 -178 40 0 c39 0 40 1 45 40 3 23 17 56 31 74 l27 34
51 -77 52 -76 50 0 c61 0 62 -2 -18 111 -33 46 -63 89 -66 96 -4 7 19 41 54
82 l61 71 -54 0 -53 0 -65 -76 -65 -76 -3 76 -3 76 -45 0 -44 0 2 -177z"/>
<path d="M3230 1380 l0 -40 65 0 65 0 0 -140 0 -140 40 0 40 0 0 140 0 140 65
0 65 0 0 40 0 40 -170 0 -170 0 0 -40z"/>
<path d="M4010 1239 l0 -180 43 3 c42 3 42 3 45 46 3 40 5 42 35 42 27 -1 36
-8 59 -45 26 -44 29 -45 78 -45 l50 0 -36 54 -35 54 25 27 c53 57 42 159 -23
202 -30 20 -46 23 -137 23 l-104 0 0 -181z m200 86 c18 -22 15 -66 -6 -82 -10
-7 -37 -13 -61 -13 l-43 0 0 55 0 55 49 0 c31 0 53 -5 61 -15z"/>
<path d="M4382 1243 l3 -178 135 0 135 0 3 38 3 37 -95 0 -96 0 0 35 0 35 75
0 75 0 0 35 0 35 -75 0 -75 0 0 30 0 30 95 0 95 0 0 40 0 40 -140 0 -140 0 2
-177z"/>
<path d="M145 788 c-26 -62 -50 -119 -52 -125 -4 -9 5 -13 27 -13 23 0 33 5
37 20 5 17 14 20 68 20 55 0 65 -3 70 -20 4 -14 15 -20 36 -20 16 0 29 4 29 8
0 5 -22 60 -49 123 -48 111 -50 114 -84 117 l-34 3 -48 -113z m100 6 c21 -51
20 -54 -21 -54 -30 0 -35 3 -29 18 4 9 12 29 17 45 5 15 12 27 14 27 2 0 11
-16 19 -36z"/>
<path d="M350 876 c0 -22 5 -25 43 -28 l42 -3 3 -97 3 -98 29 0 30 0 0 100 0
100 40 0 c36 0 40 3 40 25 l0 25 -115 0 -115 0 0 -24z"/>
<path d="M710 895 c0 -3 23 -38 50 -77 43 -62 50 -78 50 -120 0 -47 1 -48 30
-48 29 0 30 1 30 48 0 42 7 58 50 120 28 39 50 74 50 77 0 3 -13 5 -30 5 -25
0 -35 -8 -62 -50 -18 -27 -35 -50 -38 -50 -3 0 -20 23 -38 50 -27 42 -37 50
-62 50 -17 0 -30 -2 -30 -5z"/>
<path d="M1004 867 c-86 -78 -34 -217 81 -217 74 0 125 51 125 125 0 76 -51
125 -130 125 -32 0 -48 -7 -76 -33z m130 -38 c53 -41 18 -129 -51 -129 -32 0
-73 42 -73 75 0 33 41 75 73 75 13 0 36 -9 51 -21z"/>
<path d="M1250 815 c0 -46 5 -96 12 -110 15 -34 57 -55 109 -55 33 0 47 6 75
34 34 34 34 35 34 125 0 90 0 91 -25 91 -24 0 -25 -2 -25 -67 0 -98 -29 -143
-82 -130 -33 9 -48 50 -48 133 0 62 -1 64 -25 64 -25 0 -25 -1 -25 -85z"/>
<path d="M1530 775 l0 -125 30 0 c27 0 30 3 30 30 0 25 4 30 25 30 17 0 29 -9
40 -30 13 -25 22 -30 50 -30 19 0 35 2 35 5 0 3 -10 19 -22 35 -21 29 -21 30
-2 51 13 14 19 36 19 66 0 37 -5 49 -28 69 -24 21 -38 24 -103 24 l-74 0 0
-125z m124 65 c49 -18 26 -70 -31 -70 -32 0 -33 1 -33 40 0 44 13 50 64 30z"/>
<path d="M1880 775 l0 -125 30 0 c29 0 30 1 30 50 l0 50 55 0 55 0 0 -50 c0
-49 1 -50 30 -50 l30 0 0 125 0 125 -30 0 c-29 0 -30 -1 -30 -50 l0 -50 -55 0
-55 0 0 50 c0 49 -1 50 -30 50 l-30 0 0 -125z"/>
<path d="M2206 879 c-56 -44 -70 -110 -36 -166 30 -51 62 -66 122 -61 42 4 57
11 79 36 77 86 19 212 -97 212 -27 0 -51 -7 -68 -21z m118 -50 c68 -53 -6
-161 -83 -119 -29 15 -45 64 -30 92 27 51 69 61 113 27z"/>
<path d="M2483 888 c-12 -6 -27 -23 -33 -39 -18 -43 6 -73 77 -96 65 -20 79
-46 27 -51 -20 -2 -36 4 -49 18 -22 24 -65 27 -65 4 0 -8 13 -29 29 -45 25
-24 37 -29 81 -29 41 0 56 5 75 25 48 47 23 94 -65 123 -62 21 -73 45 -22 50
22 2 34 -2 38 -12 8 -21 64 -22 64 -1 0 9 -11 27 -25 40 -18 19 -34 25 -67 24
-24 0 -53 -5 -65 -11z"/>
<path d="M2670 876 c0 -22 5 -25 43 -28 l42 -3 3 -97 3 -98 29 0 30 0 0 100 0
100 45 0 c41 0 45 2 45 25 l0 25 -120 0 -120 0 0 -24z"/>
<path d="M2950 775 l0 -125 95 0 c95 0 95 0 95 25 0 24 -2 25 -65 25 -63 0
-65 1 -65 25 0 24 3 25 55 25 52 0 55 1 55 25 0 24 -3 25 -55 25 -52 0 -55 1
-55 25 0 24 2 25 65 25 63 0 65 1 65 25 0 25 0 25 -95 25 l-95 0 0 -125z"/>
<path d="M3190 775 l0 -125 95 0 c95 0 95 0 95 25 0 24 -2 25 -65 25 l-65 0 0
100 0 100 -30 0 -30 0 0 -125z"/>
<path d="M3420 855 c0 -41 2 -45 25 -45 19 0 25 5 25 23 0 12 3 32 6 45 6 19
3 22 -25 22 -30 0 -31 -1 -31 -45z"/>
<path d="M3546 879 c-32 -26 -35 -70 -5 -98 12 -11 43 -25 70 -31 37 -9 49
-17 49 -31 0 -28 -65 -27 -80 1 -15 28 -60 27 -60 0 0 -38 44 -70 94 -70 84 0
121 37 100 99 -7 20 -23 31 -69 46 -37 13 -60 26 -60 35 0 21 49 25 65 6 14
-18 70 -22 70 -5 0 6 -13 24 -29 40 -37 37 -104 41 -145 8z"/>
<path d="M3860 775 l0 -125 65 0 c36 0 81 6 100 14 40 17 75 68 75 111 0 43
-35 94 -75 111 -19 8 -64 14 -100 14 l-65 0 0 -125z m162 48 c44 -40 9 -111
-60 -120 l-42 -6 0 78 0 78 42 -7 c23 -4 50 -14 60 -23z"/>
<path d="M4189 883 c-79 -49 -77 -175 3 -219 56 -32 145 -8 173 46 32 62 11
146 -45 175 -38 20 -98 19 -131 -2z m116 -58 c14 -13 25 -36 25 -50 0 -33 -42
-75 -75 -75 -33 0 -75 42 -75 75 0 33 42 75 75 75 14 0 37 -11 50 -25z"/>
<path d="M4466 879 c-14 -11 -33 -34 -41 -49 -42 -81 19 -180 110 -180 91 0
155 86 124 166 -29 76 -133 110 -193 63z m118 -50 c68 -53 -6 -161 -83 -119
-10 5 -24 22 -30 39 -10 24 -10 34 3 59 24 47 66 55 110 21z"/>
<path d="M4710 775 l0 -125 30 0 c27 0 30 3 30 30 0 25 4 30 23 30 15 0 29
-11 40 -30 15 -24 25 -30 53 -30 l36 0 -21 34 -21 34 21 36 c27 46 20 96 -18
126 -21 16 -40 20 -99 20 l-74 0 0 -125z m117 69 c27 -7 39 -40 23 -59 -7 -8
-28 -15 -46 -15 -33 0 -34 1 -34 40 0 42 8 47 57 34z"/>
<path d="M4993 888 c-12 -6 -27 -23 -33 -39 -18 -43 6 -73 77 -96 66 -20 79
-46 26 -51 -24 -2 -35 2 -45 17 -16 26 -68 29 -68 5 0 -8 13 -29 29 -45 25
-24 37 -29 81 -29 41 0 56 5 75 25 50 49 22 99 -70 125 -50 14 -65 28 -44 41
22 14 59 10 65 -6 4 -9 19 -15 35 -15 36 0 38 22 4 55 -18 19 -34 25 -67 24
-24 0 -53 -5 -65 -11z"/>
<path d="M5180 876 c0 -22 5 -25 43 -28 l42 -3 3 -97 3 -98 29 0 30 0 0 100 0
100 45 0 c41 0 45 2 45 25 l0 25 -120 0 -120 0 0 -24z"/>
<path d="M5460 775 l0 -125 95 0 c95 0 95 0 95 25 0 24 -2 25 -65 25 -63 0
-65 1 -65 25 0 24 3 25 55 25 52 0 55 1 55 25 0 24 -3 25 -55 25 -52 0 -55 1
-55 25 0 24 2 25 65 25 63 0 65 1 65 25 0 25 0 25 -95 25 l-95 0 0 -125z"/>
<path d="M5700 776 l0 -126 30 0 c27 0 30 3 30 30 0 29 2 30 46 30 37 0 51 5
76 30 27 27 30 36 25 72 -9 65 -34 82 -127 86 l-80 4 0 -126z m124 64 c18 -6
26 -17 26 -33 0 -32 -18 -47 -57 -47 -32 0 -33 1 -33 45 0 49 11 55 64 35z"/>
</g>
</svg>
